<?xml version="1.0" standalone="no"?>
<!DOCTYPE svg PUBLIC "-//W3C//DTD SVG 20010904//EN"
 "http://www.w3.org/TR/2001/REC-SVG-20010904/DTD/svg10.dtd">
<svg version="1.0" xmlns="http://www.w3.org/2000/svg"
 width="512.000000pt" height="512.000000pt" viewBox="0 0 512.000000 512.000000"
 preserveAspectRatio="xMidYMid meet">
<metadata>
Created by potrace 1.11, written by Peter Selinger 2001-2013
</metadata>
<g transform="translate(0.000000,512.000000) scale(0.100000,-0.100000)"
fill="#000000" stroke="none">
<path d="M1650 4729 c0 -5 -4 -7 -10 -4 -5 3 -7 0 -4 -8 3 -8 0 -18 -7 -23 -8
-5 -10 -3 -4 6 6 9 4 11 -4 6 -9 -6 -8 -13 6 -29 10 -11 12 -17 5 -13 -10 6
-11 1 -6 -20 6 -21 4 -25 -7 -19 -11 7 -11 6 0 -9 12 -14 13 -21 2 -38 -7 -11
-8 -17 -3 -14 6 3 13 -1 16 -10 3 -9 2 -12 -5 -9 -6 4 -7 -3 -3 -21 5 -21 4
-25 -6 -19 -10 6 -11 4 -4 -6 14 -23 16 -59 2 -59 -9 0 -9 -3 2 -10 8 -5 11
-10 7 -10 -4 0 -3 -10 4 -21 8 -16 8 -20 0 -14 -8 5 -10 -1 -5 -21 6 -21 4
-25 -7 -19 -11 7 -11 6 0 -9 12 -14 13 -21 2 -38 -7 -11 -8 -17 -3 -14 6 3 13
-1 16 -10 3 -9 2 -12 -5 -9 -6 4 -7 -3 -3 -21 5 -20 4 -25 -5 -19 -9 5 -9 2 0
-13 11 -17 10 -24 -2 -38 -8 -10 -9 -15 -3 -11 7 4 15 0 18 -9 3 -9 2 -12 -5
-9 -6 4 -7 -3 -3 -21 5 -20 4 -25 -5 -19 -9 5 -9 2 0 -13 11 -17 10 -24 -2
-38 -8 -10 -9 -15 -3 -11 7 4 15 0 18 -9 3 -9 2 -12 -5 -9 -6 4 -7 -3 -3 -21
5 -20 4 -25 -5 -19 -9 5 -9 2 0 -13 11 -17 10 -24 -2 -38 -8 -10 -9 -15 -3
-11 7 4 15 0 18 -9 3 -9 2 -12 -5 -9 -6 4 -7 -3 -3 -21 6 -21 4 -25 -7 -19
-12 8 -12 6 0 -8 7 -9 10 -17 6 -17 -4 0 -1 -8 6 -17 10 -11 10 -14 2 -9 -7 4
-13 3 -13 -1 0 -5 6 -15 13 -22 10 -11 9 -12 -1 -7 -10 6 -11 1 -6 -20 6 -21
4 -25 -7 -19 -11 6 -12 5 -1 -6 15 -17 16 -49 0 -49 -6 0 -3 -7 8 -16 10 -8
13 -13 6 -9 -10 5 -11 0 -6 -21 5 -20 4 -25 -5 -19 -9 5 -9 2 0 -13 10 -16 10
-23 0 -35 -9 -12 -9 -17 0 -23 8 -5 9 -3 4 6 -6 9 -4 11 4 5 8 -5 9 -11 3 -17
-12 -12 -3 -50 9 -42 5 3 9 0 9 -7 0 -7 6 -5 13 6 11 14 16 15 22 5 6 -9 4
-11 -5 -5 -9 5 -11 4 -6 -4 5 -8 12 -9 20 -2 13 11 34 10 53 -2 9 -6 11 -3 7
10 -5 17 -5 17 9 0 13 -16 15 -16 21 -2 3 10 11 13 18 8 7 -4 22 -8 33 -8 11
0 25 -4 32 -8 6 -4 15 -2 19 4 5 8 3 9 -6 4 -9 -5 -11 -4 -6 3 5 8 15 8 32 2
33 -13 36 -13 29 3 -4 6 0 4 8 -6 14 -17 16 -17 24 -2 9 15 11 15 24 -1 13
-16 12 -17 -5 -10 -20 7 -20 7 0 -15 10 -12 13 -19 6 -15 -10 6 -11 1 -6 -20
5 -20 4 -25 -6 -19 -6 4 -4 -5 6 -21 11 -15 14 -25 7 -21 -12 8 -10 -53 3 -74
4 -8 3 -9 -5 -5 -9 6 -10 0 -5 -20 5 -20 4 -25 -6 -19 -6 4 -4 -5 6 -21 11
-15 14 -25 7 -21 -9 6 -11 -4 -6 -39 3 -28 2 -44 -4 -41 -5 3 -9 -3 -8 -14 1
-11 7 -24 14 -29 11 -6 11 -8 0 -12 -12 -4 -11 -8 1 -23 14 -17 13 -18 -4 -11
-20 7 -20 7 0 -15 10 -12 13 -19 7 -15 -7 4 -13 3 -13 -1 0 -5 6 -15 13 -22
10 -10 9 -11 -5 -6 -11 5 -18 2 -18 -6 0 -7 -3 -9 -7 -6 -3 4 -12 2 -19 -4 -8
-7 -14 -6 -20 2 -5 8 -3 9 6 4 9 -5 11 -4 6 4 -5 8 -13 7 -29 -4 -25 -17 -41
-20 -32 -5 3 6 2 10 -4 10 -5 0 -13 -5 -16 -10 -5 -8 -11 -8 -20 0 -9 8 -15 8
-20 0 -8 -13 -25 -13 -25 1 0 5 5 7 12 3 7 -4 8 -3 4 5 -6 8 -12 9 -20 2 -7
-6 -16 -8 -19 -4 -4 3 -7 0 -7 -8 0 -12 -2 -12 -9 0 -8 12 -12 12 -24 2 -12
-9 -16 -9 -19 0 -3 8 -10 9 -23 2 -24 -12 -47 -6 -39 10 3 7 -2 3 -10 -7 -19
-24 -22 -61 -3 -50 6 4 3 -3 -8 -16 -11 -13 -15 -21 -9 -17 8 4 12 -8 12 -39
1 -29 -2 -42 -9 -38 -6 3 -3 -6 7 -22 11 -15 14 -25 8 -22 -6 4 -10 -8 -10
-33 1 -21 5 -39 9 -39 5 0 5 -5 2 -10 -4 -6 -12 -7 -18 -3 -7 3 -3 -4 8 -17
11 -13 15 -21 9 -17 -6 3 -10 -9 -10 -34 1 -21 5 -39 9 -39 5 0 5 -5 2 -10 -4
-6 -12 -7 -18 -3 -7 3 -3 -4 8 -17 11 -13 15 -21 9 -17 -6 3 -10 -9 -10 -34 1
-21 5 -39 9 -39 5 0 5 -5 2 -10 -4 -6 -12 -7 -18 -3 -7 3 -3 -4 8 -17 11 -13
15 -21 9 -17 -6 3 -10 -9 -10 -34 1 -21 5 -39 9 -39 5 0 5 -5 2 -10 -4 -6 -12
-7 -18 -3 -7 3 -3 -4 8 -17 11 -13 15 -20 9 -17 -13 8 -12 -41 1 -63 5 -9 4
-11 -3 -6 -7 4 -12 1 -12 -9 0 -10 5 -13 13 -9 6 4 3 -3 -8 -16 -11 -13 -15
-20 -9 -17 7 4 14 -2 17 -13 3 -11 1 -18 -4 -14 -5 3 -9 -2 -9 -11 0 -10 5
-13 13 -9 6 4 3 -3 -8 -16 -11 -13 -14 -20 -6 -15 11 6 13 3 9 -12 -3 -11 -1
-28 5 -38 6 -12 6 -16 -1 -11 -5 3 -13 -1 -16 -10 -4 -10 -2 -13 6 -8 7 5 9 0
6 -13 -3 -11 -1 -28 5 -38 6 -12 6 -16 -1 -11 -5 3 -13 -1 -16 -10 -3 -9 -2
-12 5 -8 6 4 9 -1 8 -12 -2 -11 0 -25 5 -33 6 -9 5 -12 -1 -8 -6 4 -9 -15 -6
-54 3 -45 1 -59 -7 -54 -7 4 -4 -5 6 -21 11 -15 13 -25 6 -20 -9 6 -11 1 -8
-18 3 -16 0 -26 -7 -27 -7 0 -3 -4 8 -9 11 -5 14 -9 6 -9 -11 -1 -11 -4 0 -18
8 -9 9 -14 3 -10 -13 7 -12 -52 1 -73 5 -8 4 -11 -2 -7 -6 4 -14 0 -17 -9 -3
-8 -2 -12 4 -9 5 3 8 -19 8 -53 -1 -32 2 -64 7 -72 5 -9 4 -11 -4 -6 -8 6 -10
0 -6 -21 4 -15 7 -45 7 -65 1 -20 6 -39 13 -42 7 -2 10 -19 9 -41 -2 -22 2
-43 11 -51 8 -8 12 -21 9 -29 -4 -9 0 -15 7 -15 12 0 12 -2 1 -9 -11 -7 -11
-9 2 -14 9 -4 13 -14 11 -27 -2 -11 1 -20 6 -20 6 0 8 -4 5 -9 -3 -5 1 -11 9
-15 8 -3 12 -11 9 -19 -3 -8 2 -20 11 -27 8 -7 15 -21 15 -32 0 -10 4 -16 10
-13 5 3 10 -1 10 -10 0 -10 5 -13 12 -9 8 5 9 2 5 -9 -3 -10 -2 -17 4 -17 6 0
8 -4 4 -9 -3 -5 4 -12 15 -16 11 -4 18 -10 15 -15 -3 -5 3 -18 14 -29 11 -11
17 -22 14 -24 -2 -3 5 -8 16 -12 19 -6 25 -16 23 -36 -1 -4 12 -12 28 -19 17
-7 30 -17 30 -22 0 -6 -7 -5 -15 2 -9 7 -18 10 -21 8 -3 -3 9 -12 25 -19 17
-8 31 -19 31 -25 0 -6 8 -18 18 -25 15 -13 16 -12 3 4 -12 15 -12 17 3 11 9
-3 16 -11 16 -16 0 -15 59 -70 68 -64 5 3 15 -4 22 -15 8 -10 20 -19 28 -19 7
0 10 -5 6 -12 -5 -8 0 -9 14 -6 15 4 22 2 22 -9 0 -8 5 -11 10 -8 5 3 10 -1
10 -10 0 -9 5 -13 10 -10 6 3 10 2 10 -4 0 -6 7 -8 15 -5 8 4 15 1 15 -5 0 -6
6 -11 14 -11 7 0 24 -9 38 -20 18 -14 28 -16 36 -8 8 8 13 7 18 -6 4 -11 13
-15 25 -11 11 4 19 2 19 -5 0 -7 7 -10 15 -7 8 4 17 2 21 -4 3 -6 11 -8 17 -6
7 2 21 -3 31 -12 11 -9 16 -10 12 -3 -10 17 0 15 31 -5 21 -14 25 -15 18 -3
-8 13 -7 13 8 1 9 -7 17 -10 17 -7 0 4 10 2 21 -5 15 -8 19 -8 15 0 -4 6 -2
11 3 11 6 0 11 -6 11 -12 0 -10 3 -9 9 1 7 11 11 10 20 -5 9 -16 10 -16 11 -3
0 17 27 18 63 4 12 -5 17 -2 17 11 0 17 1 16 15 -2 11 -14 14 -15 15 -4 0 13
1 13 10 0 5 -8 10 -10 10 -4 0 7 11 9 25 6 14 -2 33 2 42 9 13 11 15 11 9 1
-10 -16 28 -12 63 7 17 9 21 10 16 1 -6 -9 -3 -9 12 -1 15 7 23 7 32 -2 10 -9
11 -9 6 4 -4 12 0 15 17 14 13 -1 32 5 42 14 16 13 18 13 11 1 -5 -9 1 -7 15
5 15 13 21 15 16 5 -4 -8 0 -6 8 4 9 11 16 16 16 12 0 -5 7 -3 15 4 13 11 15
10 9 -6 -4 -15 -1 -13 16 6 12 14 19 18 15 10 -4 -8 1 -6 10 5 9 11 18 19 20
18 11 -4 44 10 40 17 -3 5 3 7 12 6 10 -2 24 4 31 13 11 13 12 13 7 1 -4 -8 1
-6 9 4 9 11 16 16 16 10 0 -5 10 2 21 16 11 14 18 18 14 10 -4 -8 1 -6 10 5 9
11 17 18 18 15 1 -2 12 2 24 11 13 9 20 19 15 24 -4 4 2 5 13 1 11 -4 16 -4
12 0 -10 10 33 45 46 37 6 -4 8 0 4 11 -4 9 -3 15 2 12 10 -6 51 30 51 46 0
13 71 84 82 81 4 -2 4 5 1 14 -4 10 -2 14 4 10 6 -4 10 1 9 11 0 9 4 16 11 15
7 -2 10 4 7 12 -4 10 0 15 10 15 14 0 15 3 5 23 -11 19 -10 20 3 10 12 -10 15
-10 16 0 2 31 9 49 21 56 7 5 12 10 11 12 -1 2 4 18 11 34 7 17 12 33 11 38
-1 4 3 7 9 7 6 0 9 9 6 20 -3 13 -1 18 6 13 6 -4 8 0 4 10 -4 10 -2 17 4 17 6
0 9 7 6 15 -4 8 -2 17 4 21 6 3 8 12 5 20 -3 7 0 16 6 20 7 5 8 2 3 -6 -5 -8
-4 -11 3 -6 6 4 10 22 8 42 -1 19 3 43 10 53 8 10 11 21 7 24 -3 4 2 9 11 13
15 6 15 7 -1 20 -15 11 -15 13 -3 14 13 0 13 1 0 10 -11 7 -11 10 -2 10 7 0
10 5 7 10 -4 6 -2 17 5 25 8 10 8 15 -1 21 -8 5 -9 3 -4 -6 5 -8 4 -11 -3 -7
-5 4 -8 16 -5 27 3 11 10 17 15 14 5 -3 4 3 -3 15 -11 16 -22 20 -57 18 -24
-2 -46 1 -48 5 -3 5 -9 6 -14 3 -18 -11 -69 -12 -74 -1 -3 7 -5 7 -5 0 -1 -10
-61 -10 -89 1 -7 2 -10 1 -7 -5 3 -5 -7 -8 -22 -7 -17 1 -27 -3 -26 -10 2 -8
-6 -9 -30 -2 -40 11 -40 11 -31 -3 4 -7 -3 -4 -16 7 -13 11 -20 15 -17 9 4 -7
-3 -11 -18 -11 -14 0 -22 3 -20 7 3 5 -6 3 -19 -3 -16 -8 -21 -14 -13 -19 9
-6 8 -8 -2 -8 -8 0 -11 -3 -8 -7 4 -3 1 -13 -6 -21 -9 -13 -9 -14 1 -8 12 7
17 -6 5 -17 -12 -13 -12 -58 0 -51 7 3 1 -4 -13 -15 -14 -11 -20 -21 -15 -21
6 0 11 -9 11 -19 0 -11 -3 -18 -7 -15 -8 4 -22 -23 -24 -46 0 -8 -6 -14 -12
-13 -6 1 -10 -8 -9 -20 0 -12 -4 -21 -11 -20 -7 2 -10 -4 -7 -12 7 -17 -20
-48 -31 -37 -5 4 -6 3 -3 -3 9 -16 -28 -70 -46 -69 -10 1 -15 0 -12 -4 3 -3
-2 -11 -12 -19 -15 -13 -15 -13 6 -3 31 15 28 8 -9 -19 -18 -13 -29 -19 -25
-13 3 6 2 14 -4 17 -6 4 -10 3 -9 -2 3 -18 -1 -36 -8 -30 -3 4 -13 -2 -20 -13
-8 -11 -19 -18 -24 -15 -5 4 -9 1 -9 -5 0 -6 -4 -9 -9 -6 -5 3 -11 -1 -15 -9
-3 -8 -12 -12 -21 -9 -9 4 -17 -1 -21 -11 -4 -9 -12 -14 -18 -12 -7 3 -20 -1
-30 -8 -10 -8 -25 -11 -34 -8 -11 5 -13 3 -7 -6 6 -10 3 -11 -13 -2 -25 14
-43 14 -22 1 12 -8 11 -10 -6 -10 -11 0 -25 -5 -32 -12 -8 -8 -12 -8 -12 -1 0
6 -7 14 -16 17 -8 3 -13 2 -9 -3 3 -5 -18 -8 -47 -7 -29 1 -59 -3 -67 -9 -11
-7 -13 -7 -8 1 4 7 0 15 -9 18 -8 3 -13 2 -10 -3 3 -5 -1 -11 -9 -15 -8 -3
-19 3 -24 12 -6 9 -11 13 -11 7 0 -5 -5 -3 -10 5 -7 11 -10 11 -10 2 0 -7 -5
-10 -10 -7 -6 4 -7 12 -3 18 4 7 -1 6 -11 -2 -9 -8 -16 -10 -15 -5 4 21 -2 24
-22 13 -15 -8 -19 -8 -15 0 4 6 0 11 -8 11 -9 0 -16 5 -16 11 0 6 -6 9 -13 6
-7 -3 -19 3 -25 14 -8 12 -18 16 -29 12 -11 -4 -14 -3 -9 5 4 7 3 12 -3 12
-18 0 -161 148 -148 153 9 4 9 6 -1 6 -7 1 -10 5 -7 11 3 5 -1 10 -9 10 -9 0
-16 5 -16 11 0 5 6 7 13 3 6 -4 1 5 -12 19 -14 15 -22 30 -18 33 3 4 -1 13 -9
21 -8 8 -12 19 -9 24 4 5 1 9 -5 9 -6 0 -8 5 -5 10 3 6 -2 10 -12 10 -15 0
-16 2 -3 10 13 9 13 10 0 10 -13 0 -13 1 0 10 8 5 10 10 4 10 -8 0 -11 240
-11 825 -1 710 1 827 14 842 8 10 12 12 8 6 -3 -7 -3 -13 2 -14 4 0 16 -2 26
-4 9 -2 14 1 11 7 -4 6 2 5 15 -1 15 -8 21 -9 21 -1 0 6 5 8 12 4 19 -12 48
-12 48 0 0 6 5 4 10 -4 7 -11 10 -11 10 -2 0 10 5 10 20 2 15 -8 20 -8 20 1 0
7 4 8 13 2 13 -9 184 -9 194 0 3 4 14 2 24 -4 13 -7 19 -6 19 1 0 7 6 8 18 2
18 -10 34 -9 73 3 22 7 23 7 9 -11 -14 -19 -14 -19 7 -1 20 18 22 18 32 0 6
-11 11 -13 11 -5 0 7 4 11 9 7 5 -3 12 -1 16 5 4 7 13 6 27 -1 16 -8 19 -8 13
1 -6 9 -2 9 14 1 16 -9 21 -9 21 1 0 9 3 9 10 -2 6 -10 10 -11 10 -2 0 6 5 12
11 12 5 0 8 -3 6 -7 -6 -10 121 -8 152 2 13 4 21 3 18 -1 -3 -5 6 -9 19 -9 13
0 24 6 24 13 0 7 5 10 10 7 6 -4 8 -10 5 -15 -6 -9 21 -7 31 3 4 3 15 2 25 -4
13 -6 19 -6 19 1 0 5 5 9 12 8 9 -2 12 50 12 212 0 137 4 218 11 222 5 4 -9 6
-32 3 -29 -3 -43 0 -43 8 0 8 -3 8 -9 -2 -6 -9 -10 -10 -16 -2 -5 9 -10 9 -21
0 -11 -9 -14 -9 -14 1 0 10 -3 10 -14 1 -10 -9 -16 -9 -21 -1 -5 8 -11 8 -21
-1 -11 -9 -14 -8 -14 2 0 9 -3 10 -8 4 -10 -14 -32 -17 -32 -4 0 5 -4 7 -10 4
-21 -13 -54 -14 -62 -2 -4 6 -8 7 -8 2 0 -16 -66 -11 -86 6 -10 8 -15 9 -11 2
4 -6 3 -14 -3 -18 -5 -3 -10 0 -10 7 0 10 -2 10 -9 0 -11 -17 -21 -17 -32 0
-7 10 -9 10 -9 -2 0 -13 -1 -13 -10 0 -9 13 -11 13 -20 0 -9 -13 -10 -13 -10
0 0 13 -1 13 -10 0 -9 -13 -11 -13 -20 0 -9 13 -10 13 -10 0 0 -13 -1 -13 -10
0 -9 13 -10 13 -10 0 0 -13 -1 -13 -10 0 -9 13 -10 13 -10 0 0 -13 -1 -13 -10
0 -9 13 -11 13 -20 0 -9 -13 -10 -13 -10 0 0 13 -1 13 -10 0 -9 -13 -11 -13
-19 -1 -8 12 -12 12 -25 2 -13 -11 -16 -11 -16 0 0 11 -2 11 -10 -1 -9 -13
-10 -13 -10 0 0 12 -2 13 -9 1 -7 -11 -9 -11 -13 0 -4 12 -7 12 -21 0 -14 -11
-17 -11 -17 0 0 11 -2 11 -10 -1 -9 -13 -10 -13 -10 0 0 12 -2 13 -9 1 -7 -11
-9 -11 -13 0 -4 12 -7 12 -21 0 -14 -11 -17 -11 -17 0 0 11 -2 11 -10 -1 -9
-13 -10 -13 -10 0 0 12 -2 13 -9 1 -7 -11 -9 -11 -13 0 -4 12 -7 12 -21 0 -14
-11 -17 -11 -17 0 0 12 -2 12 -9 0 -7 -11 -9 -11 -14 0 -4 12 -7 11 -16 -1
-10 -13 -11 -13 -11 0 0 13 -1 13 -10 0 -9 -13 -11 -13 -20 0 -9 13 -10 13
-10 0 0 -13 -1 -13 -10 0 -9 13 -11 13 -19 1 -8 -12 -11 -10 -15 10 -3 13 -4
286 -3 606 1 381 -1 584 -8 587 -5 3 -4 5 3 5 20 1 14 18 -9 24 -13 4 -19 10
-14 19 3 7 -1 4 -9 -6 -12 -15 -16 -16 -16 -5 0 12 -2 12 -10 -1 -5 -8 -10
-10 -10 -4 0 7 -7 15 -16 18 -13 5 -14 3 -6 -7 9 -10 6 -13 -12 -13 -17 0 -22
5 -19 16 4 13 3 13 -9 -1 -14 -16 -68 -21 -68 -6 0 5 -6 5 -13 -2 -10 -8 -17
-7 -27 2 -10 9 -11 9 -6 0 4 -7 2 -13 -3 -13 -6 0 -11 8 -11 17 0 15 -2 14
-16 -3 -15 -19 -16 -19 -10 1 6 20 6 20 -9 1 -15 -20 -15 -20 -16 0 0 18 -1
18 -9 -1 -6 -13 -9 -15 -9 -5 -1 13 -2 13 -11 0 -6 -10 -10 -11 -10 -2 0 6 -5
12 -11 12 -5 0 -8 -4 -5 -8 3 -5 -1 -9 -9 -9 -8 0 -12 3 -10 7 2 4 -2 7 -10 7
-8 0 -12 -4 -9 -9 3 -4 0 -8 -5 -8 -6 0 -11 8 -11 18 0 14 -2 15 -10 2 -12
-19 -50 -22 -43 -4 3 8 2 14 -1 14 -3 0 -6 -5 -6 -11z m350 -1609 c0 -5 -5
-10 -11 -10 -5 0 -7 5 -4 10 3 6 8 10 11 10 2 0 4 -4 4 -10z m764 -78 c3 -5
-1 -9 -9 -9 -8 0 -12 4 -9 9 3 4 7 8 9 8 2 0 6 -4 9 -8z"/>
<path d="M1944 4732 c4 -3 14 -7 22 -8 9 -1 13 0 10 4 -4 3 -14 7 -22 8 -9 1
-13 0 -10 -4z"/>
</g>
</svg>
